<?xml version="1.0" standalone="no"?>
<!DOCTYPE svg PUBLIC "-//W3C//DTD SVG 20010904//EN"
 "http://www.w3.org/TR/2001/REC-SVG-20010904/DTD/svg10.dtd">
<svg version="1.0" xmlns="http://www.w3.org/2000/svg"
 width="64.000000pt" height="64.000000pt" viewBox="0 0 64.000000 64.000000"
 preserveAspectRatio="xMidYMid meet">

<g transform="translate(0.000000,64.000000) scale(0.100000,-0.100000)"
fill="#D2B48C" stroke="none">
<path d="M225 615 c-30 -29 -31 -38 -5 -80 26 -42 82 -70 110 -55 25 13 43 47
36 66 -8 20 -24 18 -22 -3 2 -29 -32 -26 -64 5 -31 32 -40 72 -16 72 8 0 28
-11 44 -25 17 -14 33 -21 36 -16 8 13 -51 61 -75 61 -11 0 -31 -11 -44 -25z
m68 -113 c-5 -11 -45 23 -59 50 -16 32 -16 32 22 -7 22 -22 38 -41 37 -43z"/>
<path d="M386 553 c19 -44 16 -95 -6 -125 -26 -35 -18 -51 11 -21 11 11 23 39
26 61 6 43 -11 102 -29 102 -6 0 -7 -7 -2 -17z"/>
<path d="M450 548 c0 -2 6 -20 14 -41 16 -48 6 -110 -23 -141 -23 -24 -27 -36
-11 -36 5 0 21 17 35 37 18 27 25 51 25 85 0 48 -16 98 -32 98 -4 0 -8 -1 -8
-2z"/>
<path d="M256 406 c-11 -13 -40 -44 -63 -69 l-43 -45 0 -99 c0 -89 2 -101 24
-128 13 -16 27 -27 31 -23 4 4 -2 19 -14 34 -18 23 -21 40 -21 114 l0 88 53
61 c57 67 87 78 87 34 -1 -16 -7 -39 -15 -53 -26 -45 -21 -49 68 -52 65 -2 82
-6 82 -18 0 -9 -13 -17 -33 -20 -44 -7 -41 -24 5 -30 47 -6 53 -33 8 -38 -39
-4 -58 -22 -24 -22 14 0 30 -5 36 -11 20 -20 3 -39 -33 -39 -41 0 -46 -17 -6
-22 19 -2 27 -9 27 -23 0 -18 -7 -20 -75 -20 -41 0 -87 4 -102 9 -40 12 -36
-9 3 -23 44 -15 174 -14 187 2 9 12 21 60 26 107 1 14 6 35 10 48 5 14 3 28
-4 37 -7 8 -10 22 -6 31 3 8 1 24 -4 35 -9 16 -22 19 -80 19 -39 0 -70 2 -70
4 0 2 7 22 15 46 17 47 9 74 -26 83 -14 4 -28 -2 -43 -17z"/>
</g>
</svg>
